
<svg xlink="http://www.w3.org/1999/xlink" viewBox="0 0 5000 5000" xmlns="http://www.w3.org/2000/svg" style="transform: scale(1);"><defs><filter id="goo"><feGaussianBlur in="SourceGraphic" stdDeviation="25" result="blur"></feGaussianBlur><feColorMatrix in="blur" type="matrix" values="1 0 0 0 0 0 1 0 0 0 0 0 1 0 0 0 0 0 19 -9" result="good"></feColorMatrix><feComposite in="SourceGraphic" in2="goo" operator="atop"></feComposite></filter><path d="M227,256Q220,231 247,226L264,231Q283,237 273,256L227,256z" id="P0"></path><path d="M280,231C269,257 255,269 229,278C216,266 212,248 222,229C239,235 244,233 248,215C261,215 274,221 280,231z" id="P1"></path><path d="M233,277C236,259 233,252 219,242C224,228 235,219 252,218C266,240 267,257 260,280C250,267 245,266 233,277z" id="P2"></path><path d="M196,268C189,242 199,217 216,204C239,190 265,191 284,204C303,221 311,246 304,268C294,292 272,307 250,307C224,305 203,289 196,268z" id="P3"></path><path d="M328,245L217,321L208,184L328,245z" id="P4"></path><path d="M389,149C427,205 303,257 294,274C290,283 354,376 335,384C319,397 303,414 271,418C194,422 205,298 195,276C193,273 81,305 77,283C68,203 88,116 155,77C187,57 242,190 250,191C269,191 356,104 389,149z" id="P5"></path><path d="M265,329L203,315L207,182L279,176L265,329z" id="P6"></path><path d="M203,150C257,131 314,150 350,203L297,350Q199,407 150,297Q93,199 203,150z" id="P7"></path><path d="M281,252L265,277C233,282 214,252 232,225Q247,204 267,224C277,231 282,242 281,252z" id="P8"></path><path d="M246,282L218,250L254,218L282,254Q281,287 246,282z" id="P9"></path><path d="M221,264L240,220C258,234 267,243 280,262L235,278C229,275 225,271 221,264z" id="P10"></path><path d="M250,321C218,319 191,298 182,272C175,240 186,209 208,193C236,175 269,176 292,193C317,213 326,245 318,272C305,302 278,321 250,321z" id="P11"></path><path d="M160,261L283,165L303,324L160,261z" id="P12"></path><path d="M229,139C243,135 256,147 263,150C282,151 293,171 305,183C331,206 364,236 353,283C347,304 406,379 376,402C337,435 282,419 229,414C187,410 158,376 134,346C104,308 137,257 145,223C157,183 186,149 229,139z" id="P13"></path><path d="M286,362L250,368L175,159L272,134L286,362z" id="P14"></path><path d="M172,155C225,120 291,124 345,172L328,345L155,328L172,155z" id="P15"></path><path d="M237,227C245,223 253,223 263,227C263,244 264,253 267,270L252,276C228,270 221,246 237,227z" id="P16"></path><path d="M275,262C260,262 254,265 243,277Q216,275 222,252L250,222C270,226 281,244 275,262z" id="P17"></path><path d="M225,266L237,223C254,218 271,225 278,239L266,275Q242,294 225,266z" id="P18"></path><path d="M284,222C296,238 296,259 287,274C275,290 256,297 239,293C220,286 207,270 206,253C206,233 218,216 234,209C253,203 273,209 284,222z" id="P19"></path><path d="M384,152L271,415L100,179L384,152z" id="P20"></path><path d="M182,246C183,228 147,185 170,165C185,148 209,146 230,143C257,137 290,127 323,150C349,168 382,188 389,232C394,278 350,305 325,329C305,349 301,448 262,447C199,450 172,372 144,338C120,311 181,263 182,246z" id="P21"></path><path d="M196,114L328,127L312,382L132,336L196,114z" id="P22"></path><path d="M110,268C179,222 201,191 232,110Q374,79 390,232L268,390Q126,421 110,268z" id="P23"></path><path d="M271,253Q248,281 229,251L233,238Q246,219 264,235Q280,240 271,253z" id="P24"></path><path d="M228,244C240,243 243,240 244,228L273,254Q270,278 247,273L228,244z" id="P25"></path><path d="M263,229Q283,232 275,248Q283,268 262,272L225,253L263,229z" id="P26"></path><path d="M205,250C206,229 219,213 236,207C256,202 276,209 286,224C297,241 297,262 286,276C273,292 253,298 236,293C217,285 205,268 205,250z" id="P27"></path><path d="M281,372L128,219L342,164L281,372z" id="P28"></path><path d="M334,171C363,205 369,250 354,291C352,298 311,284 306,291C293,309 301,408 240,408C199,406 186,351 161,323C138,294 187,254 193,231C199,213 160,126 205,111C240,98 281,90 308,104C327,110 319,155 334,171z" id="P29"></path><path d="M136,228L194,148L365,265L272,364L136,228z" id="P30"></path><path d="M287,443C185,451 96,395 57,287C49,185 105,96 213,57C315,49 404,105 443,213C451,315 395,404 287,443z" id="P31"></path><path d="M280,244C266,256 260,264 252,281L219,246Q218,216 248,219L280,244z" id="P32"></path><path d="M274,221L284,264Q257,305 223,275C215,267 211,255 214,243Q230,198 274,221z" id="P33"></path><path d="M218,263Q199,256 217,242Q231,203 270,222C266,241 268,249 282,261C258,267 243,268 218,263z" id="P34"></path><path d="M246,194C272,194 294,209 302,229C310,254 303,279 286,293C265,308 239,309 220,297C199,282 191,258 196,236C204,212 224,196 246,194z" id="P35"></path><path d="M171,105L415,250L162,389L171,105z" id="P36"></path><path d="M283,310C255,323 218,331 195,309C183,299 159,293 155,274C147,244 177,221 195,199C201,191 160,108 171,105C218,80 260,172 278,180C300,189 336,195 342,220C352,250 424,306 397,343C381,373 291,307 283,310z" id="P37"></path><path d="M96,123L200,56L446,287L368,412L96,123z" id="P38"></path><path d="M281,346C230,357 180,334 154,281C143,230 166,180 219,154Q315,113 346,219L281,346z" id="P39"></path><path d="M260,221L270,226C284,246 278,270 254,281Q233,293 227,271C232,248 241,235 260,221z" id="P40"></path><path d="M235,263L260,232C258,243 260,247 270,251L254,270Q239,278 235,263z" id="P41"></path><path d="M218,263L224,228C239,215 259,214 276,228L281,264C264,285 236,285 218,263z" id="P42"></path><path d="M261,192C287,199 305,220 309,243C310,270 296,293 275,303C250,313 223,307 207,290C190,270 187,242 198,222C213,199 238,188 261,192z" id="P43"></path><path d="M367,185L250,384L137,178L367,185z" id="P44"></path><path d="M332,240C335,272 392,353 339,390C303,414 257,367 222,359C215,359 198,382 190,378C134,346 124,282 132,220C139,189 202,205 213,199C219,194 202,129 218,126C250,117 273,162 297,177C320,192 331,218 332,240z" id="P45"></path><path d="M232,109L241,108L318,374L215,388L232,109z" id="P46"></path><path d="M108,117Q232,-42 383,108C450,185 457,289 392,383C283,350 230,353 117,392C150,283 147,230 108,117z" id="P47"></path></defs><rect id="RECT" width="5000" height="5000" fill="#FFFFFF"></rect><g id="group" fill="#B56576" filter="url(#goo)" opacity="0.14"><use x="-177" y="-111" href="#P31"></use><use x="-93" y="158" href="#P13"></use><use x="-195" y="272" href="#P1"></use><use x="-167" y="512" href="#P4"></use><use x="-60" y="806" href="#P5"></use><use x="-51" y="892" href="#P1"></use><use x="-143" y="1169" href="#P19"></use><use x="-193" y="1269" href="#P2"></use><use x="-101" y="1480" href="#P19"></use><use x="-90" y="1804" href="#P23"></use><use x="-107" y="1972" href="#P11"></use><use x="-82" y="2199" href="#P15"></use><use x="-87" y="2460" href="#P11"></use><use x="-132" y="2518" href="#P26"></use><use x="-83" y="2671" href="#P44"></use><use x="-149" y="2987" href="#P13"></use><use x="-121" y="3275" href="#P1"></use><use x="-179" y="3424" href="#P25"></use><use x="-239" y="3681" href="#P31"></use><use x="-61" y="3700" href="#P31"></use><use x="-221" y="4050" href="#P6"></use><use x="-63" y="4307" href="#P37"></use><use x="-224" y="4407" href="#P9"></use><use x="-185" y="4579" href="#P3"></use><use x="-171" y="4906" href="#P1"></use><use x="-217" y="5012" href="#P26"></use><use x="-144" y="5316" href="#P30"></use><use x="161" y="-177" href="#P16"></use><use x="134" y="-30" href="#P8"></use><use x="40" y="419" href="#P30"></use><use x="31" y="479" href="#P13"></use><use x="99" y="699" href="#P24"></use><use x="0" y="980" href="#P10"></use><use x="109" y="1200" href="#P27"></use><use x="165" y="1445" href="#P2"></use><use x="123" y="1568" href="#P46"></use><use x="132" y="1705" href="#P11"></use><use x="-25" y="1888" href="#P31"></use><use x="76" y="2176" href="#P11"></use><use x="120" y="2282" href="#P2"></use><use x="14" y="2596" href="#P30"></use><use x="10" y="2800" href="#P37"></use><use x="156" y="3004" href="#P22"></use><use x="94" y="3098" href="#P41"></use><use x="20" y="3422" href="#P37"></use><use x="8" y="3611" href="#P6"></use><use x="162" y="3893" href="#P41"></use><use x="162" y="4045" href="#P24"></use><use x="128" y="4196" href="#P15"></use><use x="30" y="4401" href="#P28"></use><use x="1" y="4533" href="#P17"></use><use x="-16" y="4891" href="#P34"></use><use x="109" y="5039" href="#P19"></use><use x="3" y="5190" href="#P11"></use><use x="217" y="-152" href="#P11"></use><use x="303" y="59" href="#P7"></use><use x="301" y="265" href="#P38"></use><use x="250" y="437" href="#P43"></use><use x="302" y="743" href="#P7"></use><use x="352" y="957" href="#P47"></use><use x="230" y="1182" href="#P19"></use><use x="291" y="1274" href="#P1"></use><use x="182" y="1668" href="#P12"></use><use x="271" y="1816" href="#P10"></use><use x="247" y="1871" href="#P44"></use><use x="322" y="2187" href="#P36"></use><use x="207" y="2351" href="#P12"></use><use x="276" y="2584" href="#P37"></use><use x="256" y="2860" href="#P0"></use><use x="254" y="3010" href="#P47"></use><use x="313" y="3276" href="#P4"></use><use x="351" y="3423" href="#P22"></use><use x="217" y="3638" href="#P25"></use><use x="191" y="3860" href="#P41"></use><use x="241" y="4067" href="#P38"></use><use x="221" y="4202" href="#P41"></use><use x="280" y="4459" href="#P47"></use><use x="380" y="4733" href="#P2"></use><use x="286" y="4865" href="#P46"></use><use x="181" y="5186" href="#P1"></use><use x="199" y="5328" href="#P47"></use><use x="471" y="-180" href="#P11"></use><use x="579" y="131" href="#P34"></use><use x="566" y="184" href="#P28"></use><use x="429" y="463" href="#P46"></use><use x="554" y="777" href="#P38"></use><use x="602" y="909" href="#P14"></use><use x="435" y="1010" href="#P20"></use><use x="585" y="1337" href="#P36"></use><use x="424" y="1567" href="#P46"></use><use x="554" y="1806" href="#P21"></use><use x="496" y="2057" href="#P15"></use><use x="450" y="2161" href="#P46"></use><use x="489" y="2333" href="#P44"></use><use x="468" y="2498" href="#P28"></use><use x="477" y="2679" href="#P33"></use><use x="511" y="3056" href="#P9"></use><use x="376" y="3128" href="#P4"></use><use x="543" y="3391" href="#P39"></use><use x="477" y="3551" href="#P43"></use><use x="564" y="3846" href="#P18"></use><use x="483" y="4110" href="#P39"></use><use x="610" y="4320" href="#P38"></use><use x="483" y="4453" href="#P46"></use><use x="466" y="4752" href="#P43"></use><use x="566" y="4921" href="#P35"></use><use x="479" y="5005" href="#P26"></use><use x="477" y="5264" href="#P24"></use><use x="749" y="-46" href="#P30"></use><use x="709" y="87" href="#P34"></use><use x="803" y="286" href="#P37"></use><use x="743" y="506" href="#P30"></use><use x="654" y="599" href="#P34"></use><use x="740" y="798" href="#P16"></use><use x="735" y="1169" href="#P10"></use><use x="676" y="1321" href="#P30"></use><use x="598" y="1522" href="#P35"></use><use x="625" y="1765" href="#P45"></use><use x="604" y="2071" href="#P2"></use><use x="708" y="2196" href="#P10"></use><use x="760" y="2277" href="#P37"></use><use x="695" y="2608" href="#P18"></use><use x="721" y="2711" href="#P17"></use><use x="658" y="2968" href="#P21"></use><use x="630" y="3088" href="#P35"></use><use x="761" y="3309" href="#P19"></use><use x="687" y="3653" href="#P40"></use><use x="692" y="3848" href="#P16"></use><use x="659" y="4063" href="#P46"></use><use x="658" y="4235" href="#P41"></use><use x="669" y="4501" href="#P43"></use><use x="763" y="4722" href="#P1"></use><use x="681" y="4889" href="#P23"></use><use x="712" y="5108" href="#P44"></use><use x="770" y="5219" href="#P21"></use><use x="924" y="-66" href="#P22"></use><use x="1040" y="23" href="#P8"></use><use x="964" y="357" href="#P12"></use><use x="1009" y="469" href="#P45"></use><use x="940" y="631" href="#P35"></use><use x="948" y="798" href="#P32"></use><use x="956" y="1017" href="#P19"></use><use x="898" y="1374" href="#P15"></use><use x="895" y="1543" href="#P22"></use><use x="958" y="1780" href="#P37"></use><use x="833" y="1999" href="#P29"></use><use x="986" y="2185" href="#P4"></use><use x="981" y="2414" href="#P8"></use><use x="899" y="2555" href="#P9"></use><use x="856" y="2833" href="#P37"></use><use x="933" y="2895" href="#P43"></use><use x="1002" y="3192" href="#P26"></use><use x="925" y="3437" href="#P42"></use><use x="865" y="3607" href="#P31"></use><use x="975" y="3845" href="#P34"></use><use x="874" y="4045" href="#P12"></use><use x="972" y="4162" href="#P10"></use><use x="1010" y="4522" href="#P6"></use><use x="1008" y="4631" href="#P9"></use><use x="917" y="4962" href="#P20"></use><use x="916" y="5129" href="#P34"></use><use x="842" y="5327" href="#P5"></use><use x="1199" y="-100" href="#P11"></use><use x="1210" y="161" href="#P15"></use><use x="1100" y="174" href="#P25"></use><use x="1203" y="491" href="#P45"></use><use x="1182" y="718" href="#P23"></use><use x="1141" y="833" href="#P18"></use><use x="1056" y="1074" href="#P6"></use><use x="1185" y="1228" href="#P3"></use><use x="1040" y="1481" href="#P47"></use><use x="1111" y="1839" href="#P29"></use><use x="1117" y="2045" href="#P7"></use><use x="1186" y="2122" href="#P28"></use><use x="1107" y="2466" href="#P24"></use><use x="1125" y="2577" href="#P4"></use><use x="991" y="2787" href="#P14"></use><use x="1082" y="2932" href="#P36"></use><use x="1061" y="3282" href="#P46"></use><use x="1234" y="3519" href="#P9"></use><use x="1165" y="3561" href="#P26"></use><use x="1237" y="3862" href="#P17"></use><use x="1063" y="4152" href="#P31"></use><use x="1256" y="4326" href="#P30"></use><use x="1232" y="4393" href="#P41"></use><use x="1155" y="4645" href="#P44"></use><use x="1069" y="4829" href="#P23"></use><use x="1109" y="5093" href="#P47"></use><use x="1251" y="5374" href="#P4"></use><use x="1351" y="-44" href="#P19"></use><use x="1339" y="36" href="#P36"></use><use x="1374" y="242" href="#P36"></use><use x="1382" y="430" href="#P0"></use><use x="1287" y="657" href="#P3"></use><use x="1293" y="846" href="#P5"></use><use x="1419" y="1187" href="#P16"></use><use x="1330" y="1355" href="#P3"></use><use x="1424" y="1460" href="#P8"></use><use x="1318" y="1791" href="#P30"></use><use x="1356" y="1965" href="#P33"></use><use x="1402" y="2094" href="#P11"></use><use x="1230" y="2285" href="#P18"></use><use x="1355" y="2608" href="#P14"></use><use x="1316" y="2763" href="#P16"></use><use x="1274" y="3023" href="#P27"></use><use x="1398" y="3274" href="#P35"></use><use x="1384" y="3466" href="#P39"></use><use x="1293" y="3666" href="#P41"></use><use x="1278" y="3851" href="#P16"></use><use x="1355" y="4025" href="#P18"></use><use x="1349" y="4193" href="#P35"></use><use x="1304" y="4532" href="#P38"></use><use x="1398" y="4593" href="#P34"></use><use x="1400" y="4979" href="#P8"></use><use x="1376" y="5071" href="#P1"></use><use x="1372" y="5322" href="#P29"></use><use x="1589" y="-84" href="#P39"></use><use x="1489" y="-35" href="#P2"></use><use x="1513" y="346" href="#P22"></use><use x="1520" y="385" href="#P33"></use><use x="1656" y="669" href="#P7"></use><use x="1562" y="928" href="#P5"></use><use x="1558" y="1148" href="#P17"></use><use x="1568" y="1255" href="#P28"></use><use x="1607" y="1608" href="#P33"></use><use x="1538" y="1633" href="#P12"></use><use x="1451" y="2033" href="#P9"></use><use x="1456" y="2142" href="#P28"></use><use x="1619" y="2272" href="#P36"></use><use x="1587" y="2512" href="#P2"></use><use x="1483" y="2783" href="#P26"></use><use x="1518" y="3022" href="#P40"></use><use x="1659" y="3224" href="#P24"></use><use x="1487" y="3447" href="#P35"></use><use x="1535" y="3721" href="#P22"></use><use x="1528" y="3918" href="#P10"></use><use x="1591" y="4110" href="#P45"></use><use x="1577" y="4219" href="#P16"></use><use x="1534" y="4497" href="#P7"></use><use x="1608" y="4708" href="#P27"></use><use x="1600" y="4945" href="#P35"></use><use x="1550" y="4998" href="#P9"></use><use x="1587" y="5332" href="#P40"></use><use x="1680" y="-121" href="#P47"></use><use x="1877" y="162" href="#P16"></use><use x="1813" y="178" href="#P13"></use><use x="1852" y="512" href="#P1"></use><use x="1863" y="716" href="#P19"></use><use x="1764" y="905" href="#P47"></use><use x="1770" y="1042" href="#P24"></use><use x="1788" y="1262" href="#P2"></use><use x="1662" y="1547" href="#P8"></use><use x="1757" y="1775" href="#P33"></use><use x="1779" y="1954" href="#P10"></use><use x="1789" y="2088" href="#P21"></use><use x="1716" y="2462" href="#P7"></use><use x="1720" y="2654" href="#P16"></use><use x="1798" y="2821" href="#P45"></use><use x="1742" y="3001" href="#P21"></use><use x="1871" y="3298" href="#P39"></use><use x="1869" y="3522" href="#P19"></use><use x="1735" y="3654" href="#P36"></use><use x="1828" y="3790" href="#P22"></use><use x="1816" y="3973" href="#P30"></use><use x="1811" y="4210" href="#P37"></use><use x="1793" y="4396" href="#P18"></use><use x="1884" y="4762" href="#P42"></use><use x="1876" y="4822" href="#P24"></use><use x="1776" y="4991" href="#P13"></use><use x="1840" y="5219" href="#P25"></use><use x="2087" y="-119" href="#P34"></use><use x="2090" y="32" href="#P3"></use><use x="2092" y="266" href="#P43"></use><use x="1891" y="386" href="#P29"></use><use x="1902" y="728" href="#P24"></use><use x="1956" y="834" href="#P18"></use><use x="1919" y="1173" href="#P27"></use><use x="1993" y="1348" href="#P39"></use><use x="1983" y="1531" href="#P10"></use><use x="1887" y="1623" href="#P19"></use><use x="2002" y="1961" href="#P23"></use><use x="1959" y="2039" href="#P47"></use><use x="1913" y="2371" href="#P29"></use><use x="1979" y="2604" href="#P25"></use><use x="1936" y="2695" href="#P34"></use><use x="2059" y="3026" href="#P15"></use><use x="2036" y="3308" href="#P14"></use><use x="1897" y="3390" href="#P2"></use><use x="1922" y="3733" href="#P33"></use><use x="1927" y="3830" href="#P25"></use><use x="2018" y="4158" href="#P14"></use><use x="1940" y="4351" href="#P38"></use><use x="2073" y="4504" href="#P33"></use><use x="1912" y="4741" href="#P19"></use><use x="2004" y="4979" href="#P47"></use><use x="2031" y="5072" href="#P21"></use><use x="2049" y="5190" href="#P40"></use><use x="2254" y="-127" href="#P0"></use><use x="2225" y="72" href="#P42"></use><use x="2126" y="244" href="#P44"></use><use x="2214" y="506" href="#P17"></use><use x="2292" y="573" href="#P43"></use><use x="2256" y="923" href="#P20"></use><use x="2208" y="1078" href="#P15"></use><use x="2199" y="1383" href="#P8"></use><use x="2213" y="1549" href="#P25"></use><use x="2139" y="1726" href="#P15"></use><use x="2186" y="1967" href="#P25"></use><use x="2209" y="2094" href="#P12"></use><use x="2164" y="2401" href="#P38"></use><use x="2240" y="2485" href="#P3"></use><use x="2144" y="2901" href="#P7"></use><use x="2270" y="2924" href="#P35"></use><use x="2111" y="3159" href="#P3"></use><use x="2100" y="3385" href="#P33"></use><use x="2226" y="3681" href="#P8"></use><use x="2130" y="3967" href="#P9"></use><use x="2294" y="4081" href="#P22"></use><use x="2143" y="4338" href="#P42"></use><use x="2205" y="4419" href="#P32"></use><use x="2121" y="4663" href="#P47"></use><use x="2117" y="4944" href="#P14"></use><use x="2124" y="5104" href="#P31"></use><use x="2201" y="5241" href="#P20"></use><use x="2396" y="-48" href="#P35"></use><use x="2362" y="73" href="#P35"></use><use x="2466" y="322" href="#P0"></use><use x="2317" y="372" href="#P47"></use><use x="2491" y="583" href="#P5"></use><use x="2449" y="822" href="#P40"></use><use x="2397" y="1057" href="#P46"></use><use x="2473" y="1301" href="#P34"></use><use x="2447" y="1427" href="#P47"></use><use x="2448" y="1663" href="#P0"></use><use x="2465" y="1944" href="#P6"></use><use x="2452" y="2203" href="#P7"></use><use x="2437" y="2327" href="#P40"></use><use x="2274" y="2572" href="#P35"></use><use x="2479" y="2807" href="#P19"></use><use x="2496" y="3092" href="#P36"></use><use x="2359" y="3231" href="#P22"></use><use x="2408" y="3396" href="#P45"></use><use x="2294" y="3681" href="#P29"></use><use x="2457" y="3916" href="#P26"></use><use x="2387" y="3971" href="#P25"></use><use x="2319" y="4206" href="#P35"></use><use x="2446" y="4573" href="#P45"></use><use x="2464" y="4628" href="#P20"></use><use x="2426" y="4881" href="#P36"></use><use x="2347" y="5025" href="#P0"></use><use x="2370" y="5367" href="#P2"></use><use x="2616" y="-166" href="#P36"></use><use x="2507" y="33" href="#P27"></use><use x="2649" y="306" href="#P10"></use><use x="2633" y="561" href="#P46"></use><use x="2605" y="637" href="#P18"></use><use x="2559" y="808" href="#P2"></use><use x="2529" y="983" href="#P44"></use><use x="2553" y="1230" href="#P1"></use><use x="2528" y="1423" href="#P38"></use><use x="2543" y="1707" href="#P25"></use><use x="2574" y="1993" href="#P28"></use><use x="2538" y="2134" href="#P13"></use><use x="2610" y="2409" href="#P20"></use><use x="2658" y="2680" href="#P17"></use><use x="2604" y="2864" href="#P6"></use><use x="2510" y="2924" href="#P19"></use><use x="2644" y="3225" href="#P1"></use><use x="2571" y="3497" href="#P1"></use><use x="2526" y="3702" href="#P23"></use><use x="2584" y="3879" href="#P44"></use><use x="2698" y="4045" href="#P29"></use><use x="2621" y="4334" href="#P37"></use><use x="2622" y="4447" href="#P10"></use><use x="2692" y="4726" href="#P36"></use><use x="2613" y="4877" href="#P9"></use><use x="2527" y="5101" href="#P5"></use><use x="2622" y="5276" href="#P21"></use><use x="2722" y="-153" href="#P0"></use><use x="2827" y="146" href="#P5"></use><use x="2749" y="243" href="#P29"></use><use x="2783" y="516" href="#P37"></use><use x="2722" y="594" href="#P12"></use><use x="2802" y="940" href="#P13"></use><use x="2891" y="1144" href="#P25"></use><use x="2734" y="1298" href="#P46"></use><use x="2823" y="1558" href="#P20"></use><use x="2782" y="1771" href="#P9"></use><use x="2819" y="1986" href="#P24"></use><use x="2775" y="2052" href="#P15"></use><use x="2833" y="2297" href="#P15"></use><use x="2911" y="2658" href="#P20"></use><use x="2839" y="2801" href="#P30"></use><use x="2890" y="3070" href="#P44"></use><use x="2758" y="3119" href="#P4"></use><use x="2837" y="3512" href="#P9"></use><use x="2869" y="3718" href="#P46"></use><use x="2815" y="3768" href="#P26"></use><use x="2730" y="4003" href="#P1"></use><use x="2858" y="4211" href="#P45"></use><use x="2814" y="4575" href="#P40"></use><use x="2742" y="4606" href="#P32"></use><use x="2826" y="4826" href="#P4"></use><use x="2869" y="5084" href="#P32"></use><use x="2794" y="5285" href="#P0"></use><use x="3059" y="-65" href="#P35"></use><use x="3080" y="83" href="#P43"></use><use x="2953" y="188" href="#P25"></use><use x="2987" y="365" href="#P29"></use><use x="2913" y="651" href="#P24"></use><use x="2966" y="918" href="#P11"></use><use x="3110" y="1152" href="#P43"></use><use x="3005" y="1270" href="#P15"></use><use x="3093" y="1561" href="#P44"></use><use x="3013" y="1784" href="#P2"></use><use x="3059" y="2014" href="#P15"></use><use x="3044" y="2110" href="#P40"></use><use x="2994" y="2339" href="#P26"></use><use x="3011" y="2551" href="#P23"></use><use x="3081" y="2715" href="#P23"></use><use x="3066" y="2969" href="#P43"></use><use x="2922" y="3232" href="#P47"></use><use x="3037" y="3485" href="#P19"></use><use x="2944" y="3720" href="#P30"></use><use x="3039" y="3959" href="#P34"></use><use x="3034" y="3983" href="#P33"></use><use x="3047" y="4238" href="#P47"></use><use x="3104" y="4431" href="#P34"></use><use x="3102" y="4729" href="#P1"></use><use x="3007" y="4787" href="#P29"></use><use x="3092" y="5116" href="#P33"></use><use x="2958" y="5236" href="#P13"></use><use x="3315" y="-212" href="#P31"></use><use x="3224" y="20" href="#P36"></use><use x="3177" y="204" href="#P2"></use><use x="3199" y="452" href="#P4"></use><use x="3300" y="658" href="#P44"></use><use x="3151" y="789" href="#P43"></use><use x="3221" y="1086" href="#P19"></use><use x="3128" y="1246" href="#P19"></use><use x="3327" y="1533" href="#P38"></use><use x="3280" y="1654" href="#P18"></use><use x="3283" y="1965" href="#P36"></use><use x="3188" y="2163" href="#P27"></use><use x="3295" y="2394" href="#P26"></use><use x="3327" y="2607" href="#P35"></use><use x="3320" y="2778" href="#P1"></use><use x="3259" y="3091" href="#P14"></use><use x="3251" y="3180" href="#P14"></use><use x="3200" y="3377" href="#P28"></use><use x="3195" y="3606" href="#P27"></use><use x="3143" y="3889" href="#P40"></use><use x="3217" y="4084" href="#P17"></use><use x="3308" y="4178" href="#P37"></use><use x="3274" y="4463" href="#P47"></use><use x="3219" y="4652" href="#P10"></use><use x="3286" y="4956" href="#P29"></use><use x="3230" y="5048" href="#P32"></use><use x="3287" y="5362" href="#P46"></use><use x="3477" y="-169" href="#P25"></use><use x="3406" y="159" href="#P22"></use><use x="3368" y="216" href="#P42"></use><use x="3426" y="514" href="#P40"></use><use x="3385" y="573" href="#P36"></use><use x="3432" y="943" href="#P20"></use><use x="3350" y="1087" href="#P41"></use><use x="3419" y="1201" href="#P42"></use><use x="3497" y="1433" href="#P19"></use><use x="3342" y="1821" href="#P20"></use><use x="3489" y="1860" href="#P46"></use><use x="3414" y="2083" href="#P36"></use><use x="3394" y="2402" href="#P28"></use><use x="3487" y="2629" href="#P19"></use><use x="3405" y="2692" href="#P41"></use><use x="3552" y="3027" href="#P0"></use><use x="3420" y="3318" href="#P37"></use><use x="3432" y="3445" href="#P39"></use><use x="3481" y="3697" href="#P18"></use><use x="3350" y="3950" href="#P29"></use><use x="3396" y="4122" href="#P41"></use><use x="3504" y="4320" href="#P4"></use><use x="3384" y="4489" href="#P5"></use><use x="3475" y="4728" href="#P40"></use><use x="3461" y="4890" href="#P34"></use><use x="3362" y="5102" href="#P44"></use><use x="3508" y="5337" href="#P23"></use><use x="3704" y="-58" href="#P35"></use><use x="3689" y="-37" href="#P30"></use><use x="3535" y="205" href="#P7"></use><use x="3674" y="417" href="#P31"></use><use x="3555" y="589" href="#P19"></use><use x="3657" y="792" href="#P10"></use><use x="3738" y="1201" href="#P0"></use><use x="3657" y="1341" href="#P7"></use><use x="3749" y="1420" href="#P16"></use><use x="3709" y="1663" href="#P7"></use><use x="3643" y="1990" href="#P38"></use><use x="3702" y="2230" href="#P21"></use><use x="3663" y="2275" href="#P46"></use><use x="3637" y="2522" href="#P10"></use><use x="3688" y="2756" href="#P18"></use><use x="3627" y="2978" href="#P7"></use><use x="3660" y="3263" href="#P26"></use><use x="3658" y="3462" href="#P8"></use><use x="3694" y="3664" href="#P1"></use><use x="3575" y="3851" href="#P13"></use><use x="3708" y="4048" href="#P22"></use><use x="3672" y="4198" href="#P25"></use><use x="3538" y="4547" href="#P10"></use><use x="3533" y="4646" href="#P9"></use><use x="3559" y="4932" href="#P22"></use><use x="3573" y="5081" href="#P33"></use><use x="3664" y="5393" href="#P22"></use><use x="3857" y="-137" href="#P43"></use><use x="3875" y="-1" href="#P3"></use><use x="3750" y="279" href="#P43"></use><use x="3834" y="392" href="#P30"></use><use x="3839" y="673" href="#P12"></use><use x="3848" y="963" href="#P12"></use><use x="3953" y="1119" href="#P31"></use><use x="3807" y="1322" href="#P31"></use><use x="3927" y="1541" href="#P32"></use><use x="3906" y="1692" href="#P38"></use><use x="3958" y="1968" href="#P6"></use><use x="3824" y="2102" href="#P35"></use><use x="3948" y="2321" href="#P14"></use><use x="3957" y="2524" href="#P35"></use><use x="3896" y="2824" href="#P42"></use><use x="3816" y="2883" href="#P41"></use><use x="3942" y="3239" href="#P38"></use><use x="3807" y="3356" href="#P27"></use><use x="3763" y="3645" href="#P36"></use><use x="3922" y="3800" href="#P42"></use><use x="3844" y="4080" href="#P41"></use><use x="3870" y="4338" href="#P29"></use><use x="3778" y="4538" href="#P33"></use><use x="3900" y="4724" href="#P46"></use><use x="3841" y="4966" href="#P38"></use><use x="3831" y="5151" href="#P34"></use><use x="3851" y="5388" href="#P35"></use><use x="4086" y="-188" href="#P39"></use><use x="4004" y="124" href="#P40"></use><use x="4114" y="351" href="#P38"></use><use x="4093" y="545" href="#P44"></use><use x="4127" y="692" href="#P29"></use><use x="3973" y="824" href="#P14"></use><use x="4070" y="1185" href="#P10"></use><use x="4173" y="1249" href="#P15"></use><use x="4107" y="1605" href="#P5"></use><use x="4029" y="1811" href="#P41"></use><use x="4193" y="1883" href="#P34"></use><use x="4191" y="2136" href="#P11"></use><use x="4168" y="2379" href="#P42"></use><use x="4177" y="2617" href="#P7"></use><use x="4159" y="2673" href="#P28"></use><use x="4049" y="2940" href="#P31"></use><use x="4030" y="3241" href="#P25"></use><use x="4140" y="3423" href="#P42"></use><use x="4123" y="3644" href="#P29"></use><use x="4083" y="3809" href="#P1"></use><use x="4135" y="4060" href="#P17"></use><use x="4139" y="4172" href="#P38"></use><use x="4149" y="4542" href="#P39"></use><use x="4153" y="4620" href="#P3"></use><use x="4058" y="4945" href="#P22"></use><use x="3997" y="5031" href="#P20"></use><use x="4039" y="5251" href="#P32"></use><use x="4193" y="-51" href="#P29"></use><use x="4261" y="111" href="#P19"></use><use x="4313" y="218" href="#P24"></use><use x="4360" y="537" href="#P44"></use><use x="4294" y="682" href="#P4"></use><use x="4376" y="820" href="#P33"></use><use x="4366" y="1131" href="#P0"></use><use x="4252" y="1310" href="#P26"></use><use x="4351" y="1450" href="#P1"></use><use x="4252" y="1819" href="#P41"></use><use x="4286" y="2061" href="#P1"></use><use x="4321" y="2087" href="#P41"></use><use x="4315" y="2439" href="#P7"></use><use x="4319" y="2564" href="#P6"></use><use x="4338" y="2728" href="#P10"></use><use x="4327" y="3057" href="#P47"></use><use x="4370" y="3217" href="#P3"></use><use x="4318" y="3492" href="#P44"></use><use x="4379" y="3681" href="#P24"></use><use x="4210" y="3847" href="#P21"></use><use x="4330" y="4066" href="#P46"></use><use x="4355" y="4311" href="#P10"></use><use x="4253" y="4504" href="#P42"></use><use x="4222" y="4730" href="#P18"></use><use x="4246" y="4846" href="#P27"></use><use x="4214" y="5147" href="#P25"></use><use x="4198" y="5286" href="#P2"></use><use x="4581" y="-64" href="#P0"></use><use x="4586" y="96" href="#P47"></use><use x="4538" y="290" href="#P41"></use><use x="4495" y="538" href="#P46"></use><use x="4513" y="592" href="#P19"></use><use x="4507" y="970" href="#P5"></use><use x="4504" y="1017" href="#P35"></use><use x="4490" y="1224" href="#P26"></use><use x="4553" y="1539" href="#P31"></use><use x="4511" y="1788" href="#P34"></use><use x="4439" y="1954" href="#P41"></use><use x="4544" y="2165" href="#P0"></use><use x="4579" y="2289" href="#P3"></use><use x="4600" y="2547" href="#P26"></use><use x="4602" y="2680" href="#P5"></use><use x="4431" y="2934" href="#P33"></use><use x="4441" y="3100" href="#P36"></use><use x="4422" y="3365" href="#P6"></use><use x="4608" y="3595" href="#P0"></use><use x="4426" y="3736" href="#P31"></use><use x="4583" y="3941" href="#P21"></use><use x="4398" y="4154" href="#P22"></use><use x="4387" y="4362" href="#P19"></use><use x="4538" y="4693" href="#P30"></use><use x="4400" y="4783" href="#P16"></use><use x="4434" y="5029" href="#P23"></use><use x="4548" y="5279" href="#P26"></use><use x="4675" y="-245" href="#P7"></use><use x="4779" y="-40" href="#P4"></use><use x="4676" y="194" href="#P42"></use><use x="4795" y="434" href="#P13"></use><use x="4766" y="591" href="#P19"></use><use x="4822" y="1006" href="#P42"></use><use x="4652" y="1032" href="#P39"></use><use x="4644" y="1285" href="#P25"></use><use x="4634" y="1657" href="#P10"></use><use x="4771" y="1854" href="#P14"></use><use x="4810" y="1871" href="#P2"></use><use x="4821" y="2111" href="#P18"></use><use x="4654" y="2421" href="#P47"></use><use x="4665" y="2529" href="#P8"></use><use x="4661" y="2871" href="#P45"></use><use x="4779" y="3009" href="#P29"></use><use x="4730" y="3265" href="#P11"></use><use x="4641" y="3359" href="#P27"></use><use x="4696" y="3546" href="#P30"></use><use x="4725" y="3699" href="#P30"></use><use x="4755" y="3950" href="#P21"></use><use x="4725" y="4283" href="#P32"></use><use x="4727" y="4379" href="#P41"></use><use x="4596" y="4703" href="#P36"></use><use x="4736" y="4814" href="#P33"></use><use x="4696" y="5022" href="#P26"></use><use x="4717" y="5267" href="#P12"></use><use x="4975" y="-212" href="#P26"></use><use x="4857" y="111" href="#P15"></use><use x="4883" y="207" href="#P44"></use><use x="4949" y="575" href="#P14"></use><use x="4938" y="758" href="#P21"></use><use x="5016" y="959" href="#P41"></use><use x="4897" y="1077" href="#P32"></use><use x="4984" y="1347" href="#P21"></use><use x="4881" y="1567" href="#P15"></use><use x="4856" y="1799" href="#P34"></use><use x="4919" y="2022" href="#P25"></use><use x="4899" y="2249" href="#P36"></use><use x="5020" y="2424" href="#P40"></use><use x="4923" y="2616" href="#P42"></use><use x="4873" y="2815" href="#P43"></use><use x="4881" y="3014" href="#P24"></use><use x="4979" y="3089" href="#P12"></use><use x="4850" y="3468" href="#P33"></use><use x="4985" y="3612" href="#P30"></use><use x="4950" y="3878" href="#P45"></use><use x="4966" y="3955" href="#P23"></use><use x="4964" y="4312" href="#P5"></use><use x="4887" y="4486" href="#P19"></use><use x="4925" y="4649" href="#P21"></use><use x="4936" y="4857" href="#P17"></use><use x="5015" y="5103" href="#P25"></use><use x="4940" y="5209" href="#P32"></use><use x="5080" y="-56" href="#P19"></use><use x="5097" y="177" href="#P46"></use><use x="5233" y="343" href="#P11"></use><use x="5151" y="625" href="#P24"></use><use x="5145" y="803" href="#P43"></use><use x="5135" y="1028" href="#P5"></use><use x="5120" y="1170" href="#P45"></use><use x="5201" y="1433" href="#P36"></use><use x="5239" y="1525" href="#P42"></use><use x="5162" y="1806" href="#P46"></use><use x="5178" y="2063" href="#P25"></use><use x="5171" y="2213" href="#P29"></use><use x="5216" y="2352" href="#P24"></use><use x="5134" y="2539" href="#P42"></use><use x="5078" y="2744" href="#P47"></use><use x="5142" y="3058" href="#P15"></use><use x="5157" y="3207" href="#P7"></use><use x="5112" y="3312" href="#P38"></use><use x="5072" y="3506" href="#P13"></use><use x="5231" y="3876" href="#P4"></use><use x="5120" y="4025" href="#P23"></use><use x="5125" y="4236" href="#P40"></use><use x="5045" y="4368" href="#P13"></use><use x="5068" y="4617" href="#P23"></use><use x="5096" y="4931" href="#P8"></use><use x="5223" y="5037" href="#P45"></use><use x="5184" y="5312" href="#P43"></use></g></svg>
